<svg height="512pt" viewBox="-190 -200 900 900" width="512pt" xmlns="http://www.w3.org/2000/svg">
<defs>
<style>
 .cls-9 {
        fill: #010101;
        font-size: 4rem;
        font-family: "Segoe UI";
      }
</style>
</defs>
  <text class="cls-9" transform="translate(140 -90)"><tspan x="0" y="0">Socrates</tspan></text>-->

<path d="m512 256c0 141.386719-114.613281 256-256 256s-256-114.613281-256-256 114.613281-256 256-256 256 114.613281 256 256zm0 0" fill="#e67500"/>
<path d="m512 256c0-16.925781-1.660156-33.457031-4.792969-49.464844l-45.769531-45.765625-72.957031-61.71875c-9.101563-7.703125-20.644531-11.929687-32.570313-11.929687h-65.671875c0 18.882812-15.359375 34.238281-34.238281 34.238281-.003906 0-.007812 0-.011719 0v-.007813s-.140625 0-.398437 0l-33.828125-34.230468h-65.671875c-11.925782 0-23.46875 4.226562-32.570313 11.929687l-72.957031 61.71875 42.027344 56.714844 1.171875-.8125 5.675781 7.65625 26.5625 26.277344v160.0625l99.519531 99.519531c9.996094 1.183594 20.164063 1.8125 30.480469 1.8125 141.386719 0 256-114.613281 256-256zm0 0" fill="#9a4c00"/><path d="m388.484375 99.050781c-9.105469-7.703125-20.644531-11.929687-32.574219-11.929687h-50.671875c0 27.195312-22.046875 49.238281-49.238281 49.238281s-49.238281-22.042969-49.238281-49.238281h-50.671875c-11.929688 0-23.46875 4.226562-32.574219 11.929687l-72.953125 61.714844 42.027344 56.71875 33.40625-23.242187v216.425781h260.003906v-216.425781l33.410156 23.242187 42.027344-56.71875zm0 0" fill="#ffe670"/><path d="m461.441406 160.769531-42.03125 56.710938-33.410156-23.242188v216.433594h-130v-274.3125c27.191406 0 49.238281-22.039063 49.238281-49.238281h50.671875c11.929688 0 23.46875 4.230468 32.570313 11.929687zm0 0" fill="#ffd400"/><path d="m256 151.359375c-35.421875 0-64.238281-28.816406-64.238281-64.238281h30c0 18.878906 15.359375 34.238281 34.238281 34.238281s34.238281-15.359375 34.238281-34.238281h30c0 35.421875-28.816406 64.238281-64.238281 64.238281zm0 0" fill="#2cd729"/><path d="m320.238281 87.121094c0 35.417968-28.816406 64.238281-64.238281 64.238281v-30c18.878906 0 34.238281-15.359375 34.238281-34.238281zm0 0" fill="#00ae00"/><path d="m50.5625 160.765625 19.085938 25.757813 22.996093 30.925781 24.636719-17.140625-43.808594-58.921875zm0 0" fill="#2cd729"/><path d="m461.4375 160.765625-22.910156-19.378906-43.808594 58.921875 24.636719 17.140625 23.019531-30.957031zm0 0" fill="#00ae00"/>
<path d="m349.5 201.917969c0 11.328125-9.183594 20.511719-20.511719 20.511719s-20.511719-9.183594-20.511719-20.511719 9.183594-20.511719 20.511719-20.511719 20.511719 9.183594 20.511719 20.511719zm0 0" fill="#08f"/>
<path d="m324.546875 186.769531c-2.582031-.714843-5.082031-1.222656-7.414063-1.582031-3.519531 2.496094-6.210937 6.074219-7.601562 10.246094 3.277344.171875 7.710938.679687 12.390625 2.003906 10.8125 3.066406 18.375 9.101562 22.535156 17.945312 2.984375-3.429687 4.851563-7.855468 5.023438-12.71875-5.890625-7.554687-14.328125-12.964843-24.933594-15.894531zm0 0" fill="#fff"/>
</svg>